<svg width="16" height="16" viewBox="0 0 16 16" fill="none" xmlns="http://www.w3.org/2000/svg">
<path d="M8.7525 8L12.8325 4.3735C12.9082 4.3061 12.9617 4.21728 12.9858 4.11881C13.0099 4.02034 13.0034 3.91687 12.9674 3.82212C12.9313 3.72738 12.8673 3.64584 12.7838 3.58831C12.7004 3.53078 12.6014 3.49998 12.5 3.5H11V1H10V4.5H11.185L8 7.331L4.815 4.5H6V1H5V3.5H3.5C3.39862 3.49998 3.29964 3.53078 3.21616 3.58831C3.13269 3.64584 3.06868 3.72738 3.03262 3.82212C2.99655 3.91687 2.99014 4.02034 3.01423 4.11881C3.03832 4.21728 3.09177 4.3061 3.1675 4.3735L7.2475 8L3.1675 11.6265C3.09177 11.6939 3.03832 11.7827 3.01423 11.8812C2.99014 11.9797 2.99655 12.0831 3.03262 12.1779C3.06868 12.2726 3.13269 12.3542 3.21616 12.4117C3.29964 12.4692 3.39862 12.5 3.5 12.5H5V15H6V11.5H4.815L8 8.669L11.185 11.5H10V15H11V12.5H12.5C12.6014 12.5 12.7004 12.4692 12.7838 12.4117C12.8673 12.3542 12.9313 12.2726 12.9674 12.1779C13.0034 12.0831 13.0099 11.9797 12.9858 11.8812C12.9617 11.7827 12.9082 11.6939 12.8325 11.6265L8.7525 8Z" fill="#A59481"/>
</svg>
