<svg width="16" height="16" viewBox="0 0 16 16" fill="none" xmlns="http://www.w3.org/2000/svg">
<path d="M7.99999 10.6667C8.83332 10.6667 9.54177 10.3751 10.1253 9.79202C10.7089 9.20891 11.0004 8.50047 11 7.66669C10.9995 6.83291 10.708 6.12469 10.1253 5.54202C9.54266 4.95935 8.83421 4.66758 7.99999 4.66669C7.16577 4.6658 6.45755 4.95758 5.87532 5.54202C5.2931 6.12647 5.00132 6.83469 4.99999 7.66669C4.99866 8.49869 5.29043 9.20713 5.87532 9.79202C6.46021 10.3769 7.16843 10.6685 7.99999 10.6667ZM7.99999 9.46669C7.49999 9.46669 7.0751 9.29158 6.72532 8.94135C6.37555 8.59113 6.20043 8.16624 6.19999 7.66669C6.19955 7.16713 6.37466 6.74224 6.72532 6.39202C7.07599 6.0418 7.50088 5.86669 7.99999 5.86669C8.4991 5.86669 8.92421 6.0418 9.27532 6.39202C9.62643 6.74224 9.80132 7.16713 9.79999 7.66669C9.79866 8.16624 9.62377 8.59135 9.27532 8.94202C8.92688 9.29269 8.50177 9.46758 7.99999 9.46669ZM7.99999 12.6667C6.37777 12.6667 4.89999 12.214 3.56666 11.3087C2.23332 10.4034 1.26666 9.18935 0.666656 7.66669C1.26666 6.14447 2.23332 4.93069 3.56666 4.02535C4.89999 3.12002 6.37777 2.66713 7.99999 2.66669C9.62221 2.66624 11.1 3.11913 12.4333 4.02535C13.7667 4.93158 14.7333 6.14535 15.3333 7.66669C14.7333 9.18891 13.7667 10.4029 12.4333 11.3087C11.1 12.2145 9.62221 12.6671 7.99999 12.6667ZM7.99999 11.3334C9.25555 11.3334 10.4084 11.0029 11.4587 10.342C12.5089 9.68113 13.3115 8.78935 13.8667 7.66669C13.3111 6.54447 12.5082 5.65291 11.458 4.99202C10.4078 4.33113 9.2551 4.00047 7.99999 4.00002C6.74488 3.99958 5.59221 4.33024 4.54199 4.99202C3.49177 5.6538 2.68888 6.54535 2.13332 7.66669C2.68888 8.78891 3.49177 9.68069 4.54199 10.342C5.59221 11.0034 6.74488 11.3338 7.99999 11.3334Z" fill="#A59481"/>
</svg>
